<svg id="Layer_1" data-name="Layer 1" xmlns="http://www.w3.org/2000/svg" viewBox="0 0 651.44 299.23"><defs><style>.cls-1{fill:#fff;}</style></defs><title>Dyor logo svg</title><path class="cls-1" d="M343.26,93a70.88,70.88,0,0,1,16-11.83V66.67h-.62a31,31,0,0,0-31.06,31.06V116A70.19,70.19,0,0,1,343.26,93Z"/><path class="cls-1" d="M491.76,88.09a66.55,66.55,0,0,0-31.29,51.09c-.09-1.2-.22-2.38-.39-3.56A66.54,66.54,0,0,0,359.3,88v-.08a66.91,66.91,0,0,0-12.24,9.68A66.15,66.15,0,0,0,327.65,141c0,1.34,0,2.83,0,3.7V149a19.26,19.26,0,0,1-.64,5.07v0A35.53,35.53,0,0,1,280.4,178c-10.6-3.94-18.22-12.81-21.26-23.81a35.56,35.56,0,0,1-1-4.87,35.56,35.56,0,0,1-.51-4.65c0-1,0-2.75,0-4.06a66.12,66.12,0,0,0-19.37-43A67.21,67.21,0,0,0,226.23,88v.08a66.6,66.6,0,1,0,12.13,103.5,69.82,69.82,0,0,1-15.48-30.94A35.48,35.48,0,1,1,226.23,139c.06.36.11.72.16,1.09a36.29,36.29,0,0,1,.29,4.57c0,.9,0,1.79-.1,2.68A64.61,64.61,0,0,0,242,187.69l0,0a66.43,66.43,0,0,0,50.78,23.55c2,0,4-.1,6-.28A69.91,69.91,0,0,0,328,201l.18-.16v.05a71.54,71.54,0,0,0,11.39-8.68c12.71-11.89,19.08-28.67,19.08-46.07v-1.47h0a34.87,34.87,0,0,1,.41-5.34s0,0,0,0h0c.06-.42.13-.84.21-1.25a35.49,35.49,0,1,1,3.22,22.66,65.89,65.89,0,0,1-18.72,34.75A74.39,74.39,0,0,1,328.23,207c0,1.68,0,3.21,0,4.25a35.47,35.47,0,0,1-60.56,25.08l-22,22a66.56,66.56,0,0,0,112.78-57.41l.81.51a66.54,66.54,0,0,0,100.78-47.62v57.48H491.3L491,145.29c0-.2,0-.53,0-.73a34.65,34.65,0,0,1,.46-5.71,35.67,35.67,0,0,1,35.31-29.65V78.14A66.18,66.18,0,0,0,491.76,88.09Z"/><path class="cls-1" d="M242,92.64a70.13,70.13,0,0,1,15.75,23.25V29.16a.23.23,0,0,0-.23-.23,31.28,31.28,0,0,0-31.28,31.28V81A70.55,70.55,0,0,1,242,92.64Z"/><circle class="cls-1" cx="192.42" cy="143.36" r="18.47"/><circle class="cls-1" cx="395.29" cy="143.36" r="18.47"/></svg>